<?xml version="1.0" encoding="UTF-8"?>
<svg id="Layer_2" data-name="Layer 2" xmlns="http://www.w3.org/2000/svg" viewBox="0 0 257.88 342.25">
  <defs>
    <style>
      .cls-1 {
        fill: none;
        stroke: #000;
        stroke-miterlimit: 10;
        stroke-width: .75px;
      }
    </style>
  </defs>
  <g id="Layer_1-2" data-name="Layer 1">
    <g>
      <path class="cls-1" d="m257.5,128.94v84.37c0,15.15-2.62,29.69-7.44,43.19-17.74,49.76-65.28,85.38-121.12,85.38S25.56,306.26,7.82,256.5c-4.82-13.5-7.44-28.04-7.44-43.19v-84.37c0-15.53,2.75-30.41,7.8-44.19C26.2,35.51,73.47.38,128.94.38s102.74,35.13,120.76,84.37c5.05,13.78,7.8,28.67,7.8,44.19Z"/>
      <g>
        <g>
          <path d="m228.89,137.51c-19.88,24.34-43.97,11.38-70.8,9.24-17.14-.95-35.11-.99-50.82,6.84-17.88,9.83-30.56,30.34-31.95,50.93-.08,1.59,2.38,1.68,2.47.09.45-6.45,1.93-12.55,4.42-18.29,8-17.84,24.77-36.24,45.18-35.12,26.65.05,58.31,15.05,83.39,3.5,4.21-1.3,21.1-14.09,18.12-17.19Z"/>
          <path d="m228.89,137.51c-19.88,24.34-43.97,11.38-70.8,9.24-17.14-.95-35.11-.99-50.82,6.84-17.88,9.83-30.56,30.34-31.95,50.93-.08,1.59,2.38,1.68,2.47.09.45-6.45,1.93-12.55,4.42-18.29,8-17.84,24.77-36.24,45.18-35.12,26.65.05,58.31,15.05,83.39,3.5,4.21-1.3,21.1-14.09,18.12-17.19Z"/>
          <path d="m228.89,137.51c-19.88,24.34-43.97,11.38-70.8,9.24-17.14-.95-35.11-.99-50.82,6.84-17.88,9.83-30.56,30.34-31.95,50.93-.08,1.59,2.38,1.68,2.47.09.45-6.45,1.93-12.55,4.42-18.29,8-17.84,24.77-36.24,45.18-35.12,26.65.05,58.31,15.05,83.39,3.5,4.21-1.3,21.1-14.09,18.12-17.19Z"/>
        </g>
        <path d="m177.82,165.73c-3.91-.25-9.29,1.02-16.12,3.82-6.85,2.79-14.27,7.34-22.3,13.64-8.02,6.31-15.83,14.63-23.43,24.97-.12.05-.26.08-.43.07-8.74,1.22-16.73,3.13-23.98,5.71-7.25,2.59-13.33,5.53-18.23,8.78-4.91,3.25-8.2,6.54-9.89,9.84-.43.49-.65.96-.69,1.42-.03.45.15.69.56.72.45.02,1.02-.51,1.72-1.6,2.82-4.21,8.16-8.31,16.01-12.29,7.85-3.98,18.71-7.07,32.57-9.29-.31.38-.47.6-.47.65-7.15,10.49-13.67,18.93-19.57,25.34-5.9,6.41-11.33,11.25-16.29,14.53-4.96,3.28-9.55,5.44-13.77,6.49-4.23,1.05-8.24,1.45-12.03,1.21-4.71-.29-8.67-1.42-11.88-3.39-3.2-1.96-4.72-4.34-4.55-7.12l.02-.43c.55.38,1.16.64,1.83.81.58.13,1.18.22,1.8.27,1.35.11,2.75-.23,3.8-1.08,1.01-.82,1.56-1.77,1.63-2.84.08-1.36-.34-2.39-1.26-3.07-.93-.68-1.87-1.06-2.83-1.11-1.77-.11-3.55.33-5.39,1.33-1.82.99-2.81,2.74-2.98,5.23-.14,2.28.7,4.4,2.51,6.4,1.81,1.99,4.19,3.65,7.12,4.97,2.94,1.32,6.05,2.08,9.34,2.29,8.57.53,16.77-.64,24.61-3.54,7.84-2.9,15.88-8.22,24.15-15.96,8.25-7.74,17.26-18.54,27.01-32.4l.37-.58c3.79-.56,7.49-1.12,11.09-1.7,3.32-.52,6.09-1.06,8.31-1.61.37-.09.67-.33.85-.66.88-1.61,2.84-5.46,2.37-5.04-.05.05-.11.1-.18.15-.81.66-1.77,1.12-2.78,1.37-1.67.43-4.56,1.15-6.72,1.63-3.24.71-6.64,1.41-10.21,2.09,7.83-10.44,15.85-19.01,24.07-25.7,8.22-6.68,15.72-10.79,22.47-12.31,1.5-.36,2.49-.58,2.95-.66.46-.09.7-.24.71-.47.03-.51-.6-.81-1.91-.88Z"/>
        <path d="m174.02,94.21c-1.61-.94-3.65-1.41-6.09-1.41-7.27,0-15,1.4-23.19,4.19-8.19,2.78-16.41,6.61-24.65,11.46-8.24,4.86-16.08,10.47-23.52,16.84-7.45,6.37-14.07,13.14-19.87,20.3-5.57-1.25-9.84-3.45-12.83-6.62-2.98-3.15-4.47-6.54-4.47-10.18,0-5.23,1.75-10.24,5.28-15.01,3.52-4.77,8.08-9.01,13.68-12.74,5.59-3.72,11.58-6.66,17.94-8.82,6.37-2.17,12.4-3.25,18.07-3.25,1.43,0,2.66.07,3.72.17,1.05.11,1.89.17,2.51.17.74,0,1.11-.23,1.11-.69s-.69-.81-2.05-1.07c-1.36-.25-2.98-.38-4.85-.38-7.79,0-15.23,1.17-22.3,3.5-7.07,2.33-13.39,5.4-18.92,9.2-5.54,3.82-9.91,7.93-13.09,12.37-3.18,4.43-4.78,8.77-4.78,13.04,0,5.23,1.61,9.88,4.82,13.94,3.22,4.07,8.09,6.83,14.63,8.32-5.52,7.1-9.92,14.36-13.22,21.78-3.29,7.41-4.94,14.59-4.94,21.53,0,6.37,1.74,11.33,5.2,14.87,2.25,2.31,7.06,4.34,10.15,5.48,1.7.63,3.47,1.01,5.28,1.14,0,0,.22.02.52.04.3.02.69.04,1.02.04,8.58,0,16.58-1.69,24-5.07,7.41-3.38,13.92-7.7,19.52-12.96,5.6-5.25,9.96-10.79,13.09-16.62,3.12-5.82,4.69-11.18,4.69-16.07,0-2.23-.49-4.18-1.46-5.87-.36-.61-.77-1.19-1.25-1.73-.55-.43-1.21-.68-1.92-.68-1.68,0-3.5,1.08-3.42,3.3.14.61.21,1.27.21,1.99,0,.16,0,.33-.01.5,0,0,0,0,0,0-.1,3.08-1.17,6.71-3.18,10.92-2.14,4.44-5.01,8.97-8.66,13.6-3.64,4.63-7.73,8.95-12.27,12.95-4.55,4.01-9.27,7.27-14.16,9.77-4.88,2.5-9.62,3.75-14.24,3.75h-1.23c-.25,0-1.47-.15-2.45-.27-1.35-.17-2.69-.46-3.97-.92-2.56-.93-4.68-2.37-6.37-4.31-2.24-2.59-3.37-6.13-3.37-10.62,0-5.91,2.49-12.91,7.46-20.97,4.97-8.08,11.27-16.28,18.89-24.64,7.33-.35,15.03-1.63,23.1-3.88,8.07-2.24,15.92-5.13,23.54-8.66,7.61-3.52,14.49-7.39,20.62-11.6,6.15-4.21,11.03-8.49,14.67-12.87,3.63-4.37,5.45-8.49,5.45-12.36,0-2.33-.8-3.97-2.43-4.91Zm-5.16,15.01c-3.7,3.78-8.6,7.68-14.7,11.72-6.12,4.04-12.84,7.85-20.21,11.42-7.36,3.58-14.76,6.63-22.2,9.12-7.45,2.51-14.29,4.07-20.55,4.69,6.26-6.65,12.93-13.03,20.04-19.14,7.11-6.11,14.18-11.59,21.22-16.45,7.06-4.86,13.65-8.7,19.78-11.51,6.14-2.81,11.32-4.22,15.51-4.22,2,0,3.6.34,4.82,1.03,1.22.68,1.84,1.84,1.84,3.5,0,2.78-1.85,6.06-5.55,9.85Z"/>
      </g>
      <rect class="cls-1" x="10.94" y="10.12" width="236" height="322" rx="118" ry="118"/>
    </g>
  </g>
</svg>